<svg xmlns="http://www.w3.org/2000/svg" viewBox="0 0 802.17 389"><title>Ativo 6</title><g id="Camada_2" data-name="Camada 2"><g id="CamaroteC"><path d="M.13,273.07C131,182,267.66,91,398.57,0L802.17,273.07l-2.28,115.71c-265.26-.77-534.06.77-799.32,0C1.14,351-.45,310.86.13,273.07Z" style="fill:#08ba00"/><polygon points="0.13 268.51 398.3 268.51 398.3 318.66 385.26 279.89 0.13 268.51" style="fill:#12770c"/><polygon points="795.6 268.51 397.43 268.51 397.43 318.66 410.47 279.89 795.6 268.51" style="fill:#12770c"/><polygon points="0.13 273.07 399.08 0.57 802.17 273.07 397.55 32.49 0.13 273.07" style="fill:#2aef20"/><polygon points="0.13 273.07 398.3 273.07 398.3 323.22 385.26 284.45 0.13 273.07" style="fill:#2aef20"/><polygon points="795.6 273.07 397.43 273.07 397.43 323.22 410.47 284.45 795.6 273.07" style="fill:#2aef20"/><polygon points="0.56 388.77 398.73 388.77 398.73 338.62 385.69 377.38 0.56 388.77" style="fill:#12770c"/><polygon points="796.03 388.77 397.86 388.77 397.86 338.62 410.9 377.38 796.03 388.77" style="fill:#12770c"/><polygon points="397.55 32.49 384.89 273.07 407.69 273.07 397.55 32.49" style="fill:#2aef20"/><path d="M6.84,273.07l.39,108.85L68.41,380a120.93,120.93,0,0,1-38-34.59C9.46,316.08,7.13,285.25,6.84,273.07Z" style="fill:#12770c"/><path d="M795.6,273.07l-.39,108.85L734,380a120.93,120.93,0,0,0,38-34.59C793,316.08,795.31,285.25,795.6,273.07Z" style="fill:#12770c"/></g></g></svg>