<svg xmlns="http://www.w3.org/2000/svg" viewBox="0 0 804.62 390.19">
<title>Camarote-topo-laranja</title>
<g id="Camada_2" data-name="Camada 2">
<g id="CamaroteB"><path d="M.13,273.9C131.44,182.6,268.48,91.3,399.79,0L804.62,273.9,802.34,390c-266.08-.77-535.7.77-801.77,0C1.14,352.05-.45,311.82.13,273.9Z" style="fill:#ff6541"/>
<polygon points="0.13 269.33 399.52 269.33 399.52 319.63 386.44 280.75 0.13 269.33" style="fill:#a34326"/>
<polygon points="798.04 269.33 398.65 269.33 398.65 319.63 411.73 280.75 798.04 269.33" style="fill:#a34326"/>
<polygon points="0.13 273.9 400.21 0.57 804.62 273.9 398.62 33.93 0.13 273.9" style="fill:#f4a187"/>
<polygon points="0.13 273.9 399.52 273.9 399.52 324.21 386.44 285.32 0.13 273.9" style="fill:#f4a187"/>
<polygon points="798.04 273.9 398.65 273.9 398.65 324.21 411.73 285.32 798.04 273.9" style="fill:#f4a187"/>
<polygon points="0.56 389.96 399.95 389.96 399.95 339.66 386.87 378.54 0.56 389.96" style="fill:#a34326"/>
<polygon points="798.47 389.96 399.08 389.96 399.08 339.66 412.16 378.54 798.47 389.96" style="fill:#a34326"/>
<polygon points="398.62 33.93 385.39 285.32 409.22 285.32 398.62 33.93" style="fill:#f4a187"/>
<path d="M6.86,273.9l.39,109.19,61.37-1.89a121.3,121.3,0,0,1-38.16-34.7C9.49,317,7.15,286.12,6.86,273.9Z" style="fill:#a34326"/>
<path d="M798,273.9l-.39,109.19-61.37-1.89a121.3,121.3,0,0,0,38.16-34.7C795.41,317,797.75,286.12,798,273.9Z" style="fill:#a34326"/>
</g>
</g>
</svg>