<svg xmlns="http://www.w3.org/2000/svg" viewBox="0 0 838.11 390.19"><title>Ativo 3</title><g id="Camada_2" data-name="Camada 2"><g id="CamaroteB"><path d="M16.81,273.9C148.13,182.6,285.16,91.3,416.47,0L821.3,273.9,819,390c-266.08-.77-535.7.77-801.77,0C17.82,352.05,16.23,311.82,16.81,273.9Z" style="fill:#e2673b"/><polygon points="16.81 269.33 416.2 269.33 416.2 319.63 403.12 280.75 16.81 269.33" style="fill:#a34326"/><polygon points="814.72 269.33 415.33 269.33 415.33 319.63 428.41 280.75 814.72 269.33" style="fill:#a34326"/><polygon points="0 285.32 416.89 0.57 838.11 285.32 415.3 33.93 0 285.32" style="fill:#f4a187"/><polygon points="16.81 273.9 416.2 273.9 416.2 324.21 403.12 285.32 16.81 273.9" style="fill:#f4a187"/><polygon points="814.72 273.9 415.33 273.9 415.33 324.21 428.41 285.32 814.72 273.9" style="fill:#f4a187"/><polygon points="17.24 389.96 416.63 389.96 416.63 339.66 403.55 378.54 17.24 389.96" style="fill:#a34326"/><polygon points="815.15 389.96 415.76 389.96 415.76 339.66 428.85 378.54 815.15 389.96" style="fill:#a34326"/><polygon points="415.3 33.93 402.07 285.32 425.9 285.32 415.3 33.93" style="fill:#f4a187"/><path d="M23.54,273.9l.39,109.19L85.3,381.2a121.3,121.3,0,0,1-38.16-34.7C26.17,317,23.83,286.12,23.54,273.9Z" style="fill:#a34326"/><path d="M814.72,273.9l-.39,109.19L753,381.2a121.3,121.3,0,0,0,38.16-34.7C812.09,317,814.43,286.12,814.72,273.9Z" style="fill:#a34326"/></g></g></svg>