<svg xmlns="http://www.w3.org/2000/svg" viewBox="0 0 803.37 389.58"><title>Camarote-topo-roxo</title><g id="Camada_2" data-name="Camada 2"><g id="CamaroteA"><path d="M.13,273.48C131.24,182.32,268.06,91.16,399.17,0l404.2,273.48-2.28,115.88c-265.66-.77-534.86.77-800.52,0C1.14,351.5-.45,311.33.13,273.48Z" style="fill:#81379b"/><polygon points="0.13 268.91 398.89 268.91 398.89 319.13 385.83 280.31 0.13 268.91" style="fill:#c6bd58"/><polygon points="796.79 268.91 398.03 268.91 398.03 319.13 411.09 280.31 796.79 268.91" style="fill:#c6bd58"/><polygon points="0.13 273.48 399.68 0.57 803.37 273.48 398.15 32.54 0.13 273.48" style="fill:#c8418f"/><polygon points="0.13 273.48 398.89 273.48 398.89 323.7 385.83 284.88 0.13 273.48" style="fill:#c8418f"/><polygon points="796.79 273.48 398.03 273.48 398.03 323.7 411.09 284.88 796.79 273.48" style="fill:#c8418f"/><polygon points="0.56 389.36 399.33 389.36 399.33 339.13 386.27 377.95 0.56 389.36" style="fill:#70375f"/><polygon points="797.23 389.36 398.46 389.36 398.46 339.13 411.52 377.95 797.23 389.36" style="fill:#70375f"/><polygon points="398.15 32.54 385.47 273.48 408.31 273.48 398.15 32.54" style="fill:#c8418f"/><path d="M6.85,273.48l.39,109,61.28-1.89A121.11,121.11,0,0,1,30.42,346C9.48,316.55,7.14,285.67,6.85,273.48Z" style="fill:#70375f"/><path d="M796.79,273.48l-.39,109-61.28-1.89A121.11,121.11,0,0,0,773.23,346C794.17,316.55,796.51,285.67,796.79,273.48Z" style="fill:#70375f"/></g></g></svg>