<svg xmlns="http://www.w3.org/2000/svg" viewBox="0 0 197.09 48.66"><defs><style>.cls-1{font-size:7.65px;font-family:Montserrat-Light, Montserrat Light;letter-spacing:0.2em;}.cls-1,.cls-6,.cls-7{fill:#fff;}.cls-2{letter-spacing:0.19em;}.cls-3,.cls-4,.cls-5{font-family:Montserrat-Bold, Montserrat Bold;font-weight:700;}.cls-3{letter-spacing:0.2em;}.cls-4{letter-spacing:0.19em;}.cls-7{fill-rule:evenodd;}</style></defs><title>LogoCamarotes</title><g id="Camada_2" data-name="Camada 2"><g id="Layer_1" data-name="Layer 1"><text class="cls-1" transform="translate(69.52 46.75)">SISTE<tspan class="cls-2" x="24.6" y="0">M</tspan><tspan x="32.21" y="0">A DE </tspan><tspan class="cls-3" x="56.65" y="0">VEN</tspan><tspan class="cls-4" x="74.32" y="0">D</tspan><tspan class="cls-5" x="80.84" y="0">AS</tspan></text><path class="cls-6" d="M110.8,16.09H97.51l10.73,7.77-4.29,13,11.12-8.05,11.12,8.05L115.05,3.19Zm9.57,12.81-3.52-2.55-1.78-1.29-1.78,1.29-3.53,2.56,1.35-4.1.69-2.1L110,21.4l-3.16-2.28H113l.69-2.08,1.38-4.18Z"/><path class="cls-6" d="M60,13.86a9.07,9.07,0,0,1,3.89.8l.6-2a10.34,10.34,0,0,0-4.58-.86c-6,0-10.07,4.09-10.07,10.13,0,6.32,4.09,9.76,9.53,9.76a12.36,12.36,0,0,0,5.09-.92l-.52-2a10,10,0,0,1-4.06.8c-4.69,0-7.41-3-7.41-7.75C52.49,16.75,55.49,13.86,60,13.86Z"/><path class="cls-6" d="M72.8,12.09,66.25,31.37h2.57l2-6.07h6.84l2.06,6.07h2.66L75.8,12.09ZM71.34,23.36l1.89-5.58c.37-1.17.69-2.35,1-3.49h.06c.29,1.12.57,2.26,1,3.52l1.89,5.55Z"/><path class="cls-6" d="M103.68,21.79,101.21,20c0,1,.1,2,.15,2.9l.49,8.47H103l1.09-3.31Z"/><path class="cls-6" d="M101,14.58h.09c0,.28,0,.58,0,.89h2.21l-.21-3.37H99.9l-1.24,3.37h2.06C100.8,15.17,100.9,14.87,101,14.58Z"/><path class="cls-6" d="M96.46,21.41c-.86,2.43-1.54,4.55-2,6.49h-.09c-.49-2-1.14-4.12-1.95-6.49l-3.29-9.33H85.93L84.59,31.37H87l.51-8.27c.17-2.89.31-6.12.37-8.53h.06c.54,2.29,1.32,4.78,2.23,7.5l3.12,9.18h1.89l3.4-9.36c.39-1.06.74-2.06,1.07-3l-1.75-1.27Z"/><path class="cls-6" d="M131.85,22.19V22.1a5.06,5.06,0,0,0,3.63-4.92A4.8,4.8,0,0,0,134,13.52c-1.2-1.09-2.92-1.57-5.58-1.57a25.94,25.94,0,0,0-4.78.4V25.61l1.91,5.76h.58V23h2.35c2.26.09,3.29,1.09,3.86,3.75a25,25,0,0,0,1.29,4.61h2.58a30.65,30.65,0,0,1-1.49-5.29C134.23,24.07,133.34,22.7,131.85,22.19Zm-3.2-1.06H126.1v-7a10.25,10.25,0,0,1,2.46-.23c2.63,0,4.43,1.12,4.43,3.6C133,19.67,131.31,21.13,128.65,21.13Z"/><path class="cls-6" d="M146.9,11.77c-5.15,0-9,4-9,10.13,0,5.84,3.58,9.79,8.67,9.79,4.92,0,9-3.52,9-10.16C155.57,15.81,152.17,11.77,146.9,11.77Zm-.14,17.88c-3.92,0-6.15-3.69-6.15-7.81s2.06-8,6.18-8,6.15,4,6.15,7.84C152.94,26,150.71,29.65,146.76,29.65Z"/><polygon class="cls-6" points="155.89 14.2 161.75 14.2 161.75 31.37 164.27 31.37 164.27 14.2 170.16 14.2 170.16 12.09 155.89 12.09 155.89 14.2"/><polygon class="cls-6" points="174.8 22.33 182.29 22.33 182.29 20.27 174.8 20.27 174.8 14.18 182.72 14.18 182.72 12.09 172.31 12.09 172.31 31.37 183.15 31.37 183.15 29.28 174.8 29.28 174.8 22.33"/><path class="cls-6" d="M192.16,20.44c-2.66-1-3.83-1.92-3.83-3.72,0-1.32,1-2.89,3.63-2.89a7.68,7.68,0,0,1,3.66.92l.69-2a8.76,8.76,0,0,0-4.26-.94c-3.75,0-6.24,2.23-6.24,5.24,0,2.72,1.95,4.35,5.09,5.46,2.6,1,3.63,2,3.63,3.83s-1.49,3.29-4,3.29A8.82,8.82,0,0,1,186,28.34l-.63,2.09a10,10,0,0,0,4.92,1.23c4.55,0,6.75-2.58,6.75-5.55S195.43,21.7,192.16,20.44Z"/><path class="cls-7" d="M26.82,22.25c4.87,1.17,7.06,4,6.18,8.76a.47.47,0,0,1-.65.33.66.66,0,0,1-.29-.8c.78-4.18-1.56-6.39-5.45-7.31a.49.49,0,0,1-.37-.69.48.48,0,0,1,.58-.29Z"/><path class="cls-7" d="M20.66,24.17c-4.24,2.09-9,4.85-10.07,9.87a.54.54,0,0,1-.62.4c-.15,0-.47-.25-.37-.58,1.13-5.38,6.05-8.32,10.61-10.56a.61.61,0,0,1,.76.21.52.52,0,0,1-.32.66Z"/><path class="cls-7" d="M25.73,22.58c4.67-2.64,7.12-6,6.55-11.26a.53.53,0,0,1,.4-.62c.25-.07.54,0,.58.51.61,5.67-2,9.39-7,12.21a.47.47,0,0,1-.65-.21.45.45,0,0,1,.14-.62Z"/><path class="cls-7" d="M16.14,13.41c-.81,4.66-.86,8.87,4.7,10.26a.47.47,0,0,1,.4.62.49.49,0,0,1-.62.37c-6.11-1.53-6.38-6.11-5.51-11.27a.57.57,0,0,1,.61-.55.46.46,0,0,1,.4.58Z"/><path class="cls-7" d="M27.21,13.71c-.91-1-2.94.23-3.63.89s-2.13,2.56-1.21,3.53,2.9-.23,3.62-.86,2.13-2.59,1.22-3.57Zm.72-.66c1.39,1.48-.09,3.85-1.24,4.91s-3.73,2.31-5.08.83.09-3.85,1.28-4.91,3.69-2.31,5-.83Z"/><path class="cls-7" d="M15,12.69c-1,11,15.18,9.18,16.65-2a.6.6,0,0,1,.62-.4c.18,0,.47.18.4.43C31.15,23.32,12.93,24.83,14,12.62c0-.4.4-.47.58-.48s.51.14.44.54Z"/><path class="cls-7" d="M32.74,30.29C28.92,21,13.6,28,9.86,33.93a.59.59,0,0,1-.76,0,.77.77,0,0,1,0-.69c4.25-6.56,20.36-13.41,24.55-3.29a.48.48,0,0,1,0,.19v0a.46.46,0,0,1-.29.41c-.14.11-.51,0-.69-.25Z"/><path class="cls-6" d="M38.8,6.66A22.73,22.73,0,1,0,6.66,38.8,22.73,22.73,0,1,0,38.8,6.66ZM36.5,36.5A19.47,19.47,0,1,1,9,9,19.47,19.47,0,1,1,36.5,36.5Z"/></g></g></svg>